<svg width="20" height="21" viewBox="0 0 20 21" fill="none" xmlns="http://www.w3.org/2000/svg">
<path d="M2.49984 14.6667C2.27882 14.6667 2.06686 14.5789 1.91058 14.4226C1.7543 14.2663 1.6665 14.0544 1.6665 13.8333C1.6665 13.6123 1.7543 13.4004 1.91058 13.2441C2.06686 13.0878 2.27882 13 2.49984 13H11.2498C12.0832 13 12.9165 14.6667 12.4998 14.6667H2.49984ZM14.1665 14.6667C13.9455 14.6667 13.7335 14.5789 13.5772 14.4226C13.421 14.2663 13.3332 14.0544 13.3332 13.8333C13.3332 13.6123 13.421 13.4004 13.5772 13.2441C13.7335 13.0878 13.9455 13 14.1665 13H17.4998C17.7208 13 17.9328 13.0878 18.0891 13.2441C18.2454 13.4004 18.3332 13.6123 18.3332 13.8333C18.3332 14.0544 18.2454 14.2663 18.0891 14.4226C17.9328 14.5789 17.7208 14.6667 17.4998 14.6667H14.1665ZM10.5273 3.41751C10.6376 3.2259 10.8195 3.08594 11.033 3.02843C11.2465 2.97091 11.4741 3.00056 11.6657 3.11085C11.8573 3.22113 11.9972 3.40302 12.0548 3.6165C12.1123 3.82998 12.0826 4.05756 11.9723 4.24918L6.2165 14.2458C6.16195 14.3407 6.08924 14.4239 6.00253 14.4907C5.91582 14.5575 5.81681 14.6065 5.71114 14.6351C5.60548 14.6636 5.49523 14.671 5.3867 14.6569C5.27816 14.6428 5.17347 14.6075 5.07859 14.5529C4.98371 14.4984 4.9005 14.4257 4.83372 14.339C4.76694 14.2523 4.71789 14.1532 4.68938 14.0476C4.66086 13.9419 4.65344 13.8317 4.66753 13.7231C4.68162 13.6146 4.71695 13.5099 4.7715 13.415L10.5273 3.41751ZM3.33317 15.9167C3.74984 15.0833 6.24984 14.25 5.4165 15.6833C4.96435 16.4564 4.51074 17.2287 4.05567 18C3.94538 18.1916 3.7635 18.3316 3.55002 18.3891C3.33654 18.4466 3.10896 18.417 2.91734 18.3067C2.72572 18.1964 2.58576 18.0145 2.52825 17.801C2.47074 17.5875 2.50038 17.36 2.61067 17.1683L3.33317 15.9167ZM7.61067 4.24918C7.50038 4.05756 7.47074 3.82998 7.52825 3.6165C7.58576 3.40302 7.72572 3.22113 7.91734 3.11085C8.10896 3.00056 8.33654 2.97091 8.55002 3.02843C8.7635 3.08594 8.94538 3.2259 9.05567 3.41751L10.5082 5.94168C10.5645 6.03658 10.6014 6.14173 10.6168 6.25102C10.6322 6.36031 10.6257 6.47157 10.5977 6.57833C10.5698 6.6851 10.5209 6.78524 10.4539 6.87295C10.3869 6.96066 10.3031 7.03418 10.2075 7.08926C10.1118 7.14434 10.0062 7.17987 9.89673 7.19379C9.78724 7.20771 9.67608 7.19975 9.5697 7.17036C9.46332 7.14097 9.36383 7.09074 9.27702 7.02259C9.19021 6.95443 9.11781 6.86971 9.064 6.77335L7.61067 4.24918ZM10.8332 10.0833C10.0848 8.83335 10.8332 6.33335 11.4298 7.58002L16.9715 17.1667C17.0783 17.358 17.1055 17.5836 17.0471 17.7948C16.9888 18.006 16.8496 18.1857 16.6598 18.2951C16.4699 18.4044 16.2446 18.4346 16.0327 18.379C15.8207 18.3235 15.6392 18.1867 15.5273 17.9983L10.8332 10.0833Z" fill="white"/>
</svg>
