<svg width="21" height="21" viewBox="0 0 21 21" fill="none" xmlns="http://www.w3.org/2000/svg">
<g clip-path="url(#clip0_3132_3841)">
<path d="M18.8485 11.5817L15.5827 13.43L12.6535 10.5192L15.606 7.58501L18.8485 9.42001C19.0399 9.52822 19.1991 9.6853 19.3098 9.8752C19.4206 10.0651 19.479 10.281 19.479 10.5008C19.479 10.7207 19.4206 10.9366 19.3098 11.1265C19.1991 11.3164 19.0399 11.4735 18.8485 11.5817ZM1.61433 1.27001C1.55249 1.42014 1.52078 1.58097 1.521 1.74334V19.2575C1.521 19.4383 1.5585 19.6067 1.62433 19.7575L10.9202 10.5183L1.61433 1.27001ZM11.7868 9.65751L14.5018 6.95918L3.37516 0.662508C3.13667 0.525454 2.85891 0.472896 2.58683 0.513341L11.7868 9.65751ZM11.7868 11.38L2.62016 20.4908C2.8685 20.5208 3.13016 20.4775 3.37516 20.3383L14.4785 14.055L11.7868 11.38Z" fill="white"/>
</g>
<defs>
<clipPath id="clip0_3132_3841">
<rect width="20" height="20" fill="white" transform="translate(0.5 0.5)"/>
</clipPath>
</defs>
</svg>
